<svg width="40" height="40" viewBox="0 0 40 40" fill="none" xmlns="http://www.w3.org/2000/svg">
<rect x="0.5" y="0.5" width="39" height="39" rx="19.5" stroke="#777B92" stroke-opacity="0.4"/>
<path fill-rule="evenodd" clip-rule="evenodd" d="M17.5 16C17.5 14.6193 18.6193 13.5 20 13.5C21.3807 13.5 22.5 14.6193 22.5 16C22.5 17.3807 21.3807 18.5 20 18.5C18.6193 18.5 17.5 17.3807 17.5 16ZM20 12.5C18.067 12.5 16.5 14.067 16.5 16C16.5 17.933 18.067 19.5 20 19.5C21.933 19.5 23.5 17.933 23.5 16C23.5 14.067 21.933 12.5 20 12.5ZM14.5 27C14.5 23.9624 16.9624 21.5 20 21.5C23.0376 21.5 25.5 23.9624 25.5 27C25.5 27.2761 25.7239 27.5 26 27.5C26.2761 27.5 26.5 27.2761 26.5 27C26.5 23.4101 23.5899 20.5 20 20.5C16.4101 20.5 13.5 23.4101 13.5 27C13.5 27.2761 13.7239 27.5 14 27.5C14.2761 27.5 14.5 27.2761 14.5 27Z" fill="#20222B"/>
</svg>
