<svg width="24" height="24" viewBox="0 0 24 24" fill="none" xmlns="http://www.w3.org/2000/svg">
<path fill-rule="evenodd" clip-rule="evenodd" d="M19 0C19.2672 0 19.4839 0.216636 19.4839 0.483871V4.51613H23.5161C23.7834 4.51613 24 4.73277 24 5C24 5.26723 23.7834 5.48387 23.5161 5.48387H19.4839V9.51613C19.4839 9.78336 19.2672 10 19 10C18.7328 10 18.5161 9.78336 18.5161 9.51613V5.48387H14.4839C14.2166 5.48387 14 5.26723 14 5C14 4.73277 14.2166 4.51613 14.4839 4.51613H18.5161V0.483871C18.5161 0.216636 18.7328 0 19 0ZM0.5 8.99219C0.5 8.16376 1.17157 7.49219 2 7.49219H3C3.82843 7.49219 4.5 8.16376 4.5 8.99219V9.99219C4.5 10.2237 4.44754 10.443 4.35386 10.6388C4.37661 10.6616 4.39747 10.687 4.41603 10.7148L6.36222 13.6341C6.55577 13.5431 6.77194 13.4922 7 13.4922H8C8.23157 13.4922 8.45089 13.5447 8.64671 13.6384L11.5 10.7851V9.99219C11.5 9.16376 12.1716 8.49219 13 8.49219H14C14.8284 8.49219 15.5 9.16376 15.5 9.99219V10.9922C15.5 11.6453 15.0826 12.2009 14.5 12.4068V18.5775C15.0826 18.7835 15.5 19.3391 15.5 19.9922V20.9922C15.5 21.8206 14.8284 22.4922 14 22.4922H13C12.3469 22.4922 11.7913 22.0748 11.5854 21.4922H5.41465C5.20873 22.0748 4.65311 22.4922 4 22.4922H3C2.17157 22.4922 1.5 21.8206 1.5 20.9922V19.9922C1.5 19.3591 1.89215 18.8177 2.44677 18.5975L1.55003 11.4235C0.941447 11.2324 0.5 10.6638 0.5 9.99219V8.99219ZM9.5 14.9922C9.5 14.7606 9.44752 14.5413 9.35382 14.3455L11.803 11.8963C12.0768 12.2583 12.5111 12.4922 13 12.4922H13.5V18.4922H13C12.1716 18.4922 11.5 19.1638 11.5 19.9922V20.4922H5.5V19.9922C5.5 19.1638 4.82843 18.4922 4 18.4922H3.44139L2.56639 11.4922H3C3.22806 11.4922 3.44423 11.4413 3.63778 11.3502L5.58397 14.2695C5.60253 14.2974 5.62339 14.3227 5.64614 14.3456C5.55246 14.5414 5.5 14.7607 5.5 14.9922V15.9922C5.5 16.8206 6.17157 17.4922 7 17.4922H8C8.82843 17.4922 9.5 16.8206 9.5 15.9922V14.9922ZM12.5 10.9922V10.9917V9.99219C12.5 9.71605 12.7239 9.49219 13 9.49219H14C14.2761 9.49219 14.5 9.71605 14.5 9.99219V10.9922C14.5 11.2683 14.2761 11.4922 14 11.4922H13C12.7239 11.4922 12.5 11.2683 12.5 10.9922ZM4.5 20.9922V19.9922C4.5 19.716 4.27614 19.4922 4 19.4922H3.00661L2.99455 19.4922C2.72092 19.4951 2.5 19.7179 2.5 19.9922V20.9922C2.5 21.2683 2.72386 21.4922 3 21.4922H4C4.27614 21.4922 4.5 21.2683 4.5 20.9922ZM12.5 20.9922C12.5 21.2683 12.7239 21.4922 13 21.4922H14C14.2761 21.4922 14.5 21.2683 14.5 20.9922V19.9922C14.5 19.716 14.2761 19.4922 14 19.4922H13C12.7239 19.4922 12.5 19.716 12.5 19.9922V20.9922ZM2.00789 10.4922L1.99513 10.4922C1.72123 10.4896 1.5 10.2667 1.5 9.99219V8.99219C1.5 8.71605 1.72386 8.49219 2 8.49219H3C3.27614 8.49219 3.5 8.71605 3.5 8.99219V9.99219C3.5 10.2683 3.27614 10.4922 3 10.4922H2.00789ZM6.5 14.9922C6.5 14.716 6.72386 14.4922 7 14.4922H8C8.27614 14.4922 8.5 14.716 8.5 14.9922V15.9922C8.5 16.2683 8.27614 16.4922 8 16.4922H7C6.72386 16.4922 6.5 16.2683 6.5 15.9922V14.9922Z" fill="#777B92"/>
</svg>
