<svg width="680" height="499" viewBox="0 0 680 499" fill="none" xmlns="http://www.w3.org/2000/svg">
<g opacity="0.5">
<g style="mix-blend-mode:multiply" opacity="0.3">
<path d="M556.867 433.294C556.867 423.289 459.799 415.178 340.06 415.178C220.322 415.178 123.254 423.289 123.254 433.294C123.254 439.814 164.479 445.528 226.329 448.719C225.155 449.597 224.541 450.496 224.541 451.41C224.541 461.416 297.33 469.527 387.12 469.527C476.911 469.527 549.7 461.416 549.7 451.41C549.7 448.108 541.763 445.011 527.906 442.345C546.323 439.682 556.867 436.591 556.867 433.294Z" fill="#0D91E0"/>
</g>
<g style="mix-blend-mode:multiply" opacity="0.3">
<path d="M573.071 164.959V158.005C573.071 154.348 570.106 151.383 566.448 151.383H559.086C556.666 151.383 554.569 149.724 553.998 147.371C552.667 141.883 550.551 136.703 547.771 131.957C546.564 129.896 546.89 127.288 548.578 125.599L553.372 120.805C555.959 118.219 555.959 114.025 553.372 111.439L548.456 106.522C545.869 103.936 541.676 103.936 539.09 106.522L534.485 111.127C532.771 112.841 530.115 113.149 528.047 111.886C523.185 108.917 517.85 106.651 512.179 105.226C509.851 104.642 508.222 102.552 508.222 100.153V94.1464C508.222 90.4886 505.257 87.5234 501.599 87.5234H494.645C490.988 87.5234 488.023 90.4886 488.023 94.1464V100.15C488.023 102.563 486.372 104.646 484.033 105.235C478.295 106.68 472.901 108.986 467.994 112.01C465.912 113.293 463.232 113.009 461.502 111.279L457.445 107.222C454.859 104.636 450.665 104.636 448.079 107.222L443.162 112.139C440.576 114.725 440.576 118.919 443.162 121.505L450.456 128.799C446.516 134.623 443.617 141.206 442.021 148.284C441.482 150.674 439.366 152.373 436.915 152.373H430.786C427.129 152.373 424.164 155.338 424.164 158.995V165.949C424.164 169.607 427.129 172.572 430.786 172.572H437.657C440.008 172.572 442.068 174.137 442.697 176.402C444.216 181.874 446.526 187.017 449.493 191.703C450.809 193.782 450.526 196.486 448.786 198.226L443.862 203.15C441.276 205.736 441.276 209.929 443.862 212.515L448.779 217.433C451.365 220.019 455.559 220.019 458.145 217.433L463.621 211.957C465.288 210.289 467.855 209.948 469.908 211.107C474.559 213.733 479.611 215.73 484.951 216.982C487.327 217.539 489.013 219.642 489.013 222.082V229.808C489.013 233.466 491.978 236.431 495.635 236.431H502.589C506.247 236.431 509.212 233.466 509.212 229.808V221.582C509.212 219.208 510.808 217.141 513.1 216.524C518.297 215.125 523.201 213.015 527.706 210.306C529.777 209.06 532.422 209.365 534.132 211.074L539.79 216.732C542.376 219.319 546.569 219.319 549.156 216.732L554.072 211.816C556.659 209.229 556.659 205.036 554.072 202.45L548.363 196.74C546.662 195.039 546.349 192.409 547.578 190.341C550.297 185.769 552.398 180.789 553.77 175.513C554.372 173.2 556.449 171.582 558.839 171.582H566.448C570.106 171.582 573.071 168.617 573.071 164.959ZM501.756 196.431C479.229 198.662 460.452 179.885 462.683 157.357C464.334 140.687 477.818 127.203 494.488 125.552C517.016 123.321 535.793 142.098 533.562 164.626C531.911 181.297 518.427 194.781 501.756 196.431Z" fill="#0D91E0"/>
</g>
<g style="mix-blend-mode:multiply" opacity="0.3">
<path d="M199.965 261.761V256.844C199.965 254.258 197.868 252.161 195.282 252.161H190.076C188.364 252.161 186.882 250.988 186.478 249.325C185.536 245.444 184.04 241.781 182.075 238.425C181.221 236.968 181.451 235.124 182.646 233.929L186.035 230.539C187.864 228.711 187.864 225.745 186.035 223.917L182.559 220.44C180.73 218.611 177.765 218.611 175.936 220.44L172.68 223.696C171.468 224.908 169.59 225.126 168.128 224.233C164.69 222.133 160.917 220.531 156.907 219.524C155.262 219.11 154.109 217.633 154.109 215.936V211.689C154.109 209.102 152.013 207.006 149.426 207.006H144.509C141.923 207.006 139.826 209.102 139.826 211.689V215.934C139.826 217.64 138.659 219.113 137.005 219.53C132.948 220.551 129.133 222.182 125.664 224.32C124.191 225.228 122.297 225.027 121.073 223.804L118.205 220.935C116.376 219.106 113.411 219.106 111.582 220.935L108.105 224.412C106.276 226.24 106.276 229.206 108.105 231.034L113.263 236.192C110.477 240.31 108.427 244.965 107.298 249.97C106.917 251.66 105.421 252.861 103.688 252.861H99.3542C96.7679 252.861 94.6713 254.958 94.6713 257.544V262.461C94.6713 265.047 96.7679 267.144 99.3542 267.144H104.212C105.875 267.144 107.332 268.25 107.776 269.852C108.851 273.722 110.484 277.358 112.582 280.671C113.512 282.142 113.312 284.054 112.082 285.284L108.6 288.766C106.771 290.594 106.771 293.56 108.6 295.388L112.077 298.865C113.906 300.694 116.871 300.694 118.7 298.865L122.572 294.993C123.751 293.814 125.565 293.573 127.017 294.393C130.306 296.249 133.878 297.661 137.654 298.546C139.334 298.941 140.527 300.428 140.527 302.153V307.616C140.527 310.203 142.623 312.299 145.209 312.299H150.126C152.713 312.299 154.809 310.203 154.809 307.616V301.799C154.809 300.121 155.938 298.659 157.558 298.223C161.233 297.234 164.701 295.742 167.886 293.826C169.351 292.945 171.221 293.16 172.43 294.369L176.431 298.37C178.26 300.199 181.225 300.199 183.054 298.37L186.531 294.893C188.359 293.064 188.359 290.099 186.531 288.271L182.493 284.233C181.29 283.03 181.069 281.171 181.939 279.709C183.861 276.476 185.347 272.954 186.317 269.224C186.742 267.588 188.211 266.444 189.901 266.444H195.282C197.868 266.444 199.965 264.347 199.965 261.761ZM149.538 284.015C133.608 285.592 120.331 272.315 121.908 256.386C123.076 244.598 132.61 235.063 144.398 233.896C160.327 232.319 173.605 245.596 172.027 261.526C170.86 273.313 161.325 282.848 149.538 284.015Z" fill="#0D91E0"/>
</g>
<path opacity="0.73" d="M636.542 262.378L637.457 257.993C637.939 255.686 636.459 253.426 634.152 252.945L629.51 251.976C627.983 251.657 626.879 250.335 626.829 248.776C626.712 245.14 626.059 241.595 624.931 238.236C624.441 236.778 624.989 235.176 626.277 234.333L629.931 231.941C631.902 230.65 632.454 228.006 631.163 226.034L628.71 222.286C627.419 220.315 624.775 219.763 622.803 221.054L619.293 223.352C617.987 224.207 616.272 224.052 615.134 222.983C612.459 220.471 609.392 218.34 606.003 216.695C604.612 216.02 603.86 214.488 604.176 212.975L604.966 209.187C605.448 206.88 603.968 204.62 601.662 204.139L597.276 203.224C594.97 202.742 592.71 204.222 592.228 206.529L591.438 210.315C591.121 211.836 589.806 212.933 588.253 212.996C584.444 213.152 580.739 213.897 577.247 215.158C575.765 215.693 574.112 215.161 573.249 213.843L571.224 210.75C569.934 208.779 567.289 208.227 565.318 209.518L561.57 211.971C559.599 213.262 559.047 215.906 560.338 217.878L563.978 223.438C560.726 226.591 558.031 230.361 556.094 234.614C555.439 236.051 553.881 236.844 552.336 236.521L548.471 235.715C546.164 235.233 543.904 236.713 543.423 239.02L542.508 243.405C542.026 245.711 543.506 247.971 545.812 248.453L550.145 249.357C551.628 249.666 552.721 250.924 552.819 252.436C553.057 256.086 553.837 259.634 555.091 262.979C555.648 264.463 555.113 266.131 553.787 266.999L550.034 269.457C548.063 270.747 547.511 273.392 548.801 275.363L551.255 279.111C552.546 281.082 555.19 281.634 557.161 280.343L561.335 277.611C562.606 276.779 564.269 276.902 565.412 277.903C567.999 280.17 570.922 282.095 574.125 283.587C575.55 284.251 576.337 285.799 576.015 287.338L574.999 292.21C574.517 294.517 575.997 296.777 578.303 297.258L582.688 298.174C584.995 298.655 587.255 297.175 587.736 294.869L588.819 289.681C589.131 288.184 590.41 287.091 591.936 287.003C595.398 286.805 598.768 286.12 601.966 285.004C603.436 284.491 605.064 285.031 605.917 286.334L608.74 290.647C610.031 292.618 612.675 293.17 614.647 291.88L618.395 289.426C620.366 288.135 620.918 285.491 619.627 283.52L616.778 279.168C615.929 277.871 616.078 276.172 617.125 275.029C619.442 272.504 621.422 269.639 622.982 266.493C623.665 265.114 625.188 264.366 626.695 264.681L631.494 265.682C633.801 266.164 636.061 264.684 636.542 262.378ZM587.428 272.839C572.927 271.281 563.558 256.969 567.929 243.056C571.164 232.76 581.442 226.032 592.172 227.185C606.672 228.743 616.042 243.055 611.671 256.968C608.435 267.264 598.158 273.992 587.428 272.839Z" fill="#006EB7"/>
<path d="M513.295 39.8333C513.744 38.1511 513.987 36.3848 513.987 34.5611C513.987 23.2993 504.858 14.1699 493.596 14.1699C485.331 14.1699 478.22 19.0899 475.018 26.1582C472.354 24.2691 469.107 23.1481 465.592 23.1481C456.666 23.1481 449.425 30.3133 449.278 39.2043C443.255 41.0956 438.885 46.7204 438.885 53.3674C438.885 61.5656 445.531 68.2116 453.73 68.2116H507.219C515.417 68.2116 522.063 61.5656 522.063 53.3674C522.063 47.3364 518.461 42.1563 513.295 39.8333Z" stroke="#E4F3FE" stroke-miterlimit="10"/>
<path d="M136.97 366.304C137.419 364.622 137.662 362.856 137.662 361.032C137.662 349.77 128.532 340.641 117.271 340.641C109.006 340.641 101.895 345.561 98.6924 352.629C96.0283 350.74 92.7815 349.619 89.267 349.619C80.3409 349.619 73.0993 356.784 72.9524 365.675C66.9296 367.566 62.56 373.191 62.56 379.838C62.56 388.036 69.206 394.682 77.4042 394.682H130.894C139.092 394.682 145.738 388.036 145.738 379.838C145.738 373.807 142.135 368.627 136.97 366.304Z" stroke="#E4F3FE" stroke-miterlimit="10"/>
<path d="M167.023 160.898H496.825C499.258 160.898 501.233 162.874 501.233 165.307V377.787H162.615V165.307C162.615 162.874 164.59 160.898 167.023 160.898Z" fill="#006EB7"/>
<path d="M182.685 174.27H481.164C483.597 174.27 485.572 176.245 485.572 178.678V356.579C485.572 359.012 483.597 360.987 481.164 360.987H182.685C180.252 360.987 178.276 359.012 178.276 356.579V178.678C178.276 176.245 180.252 174.27 182.685 174.27Z" fill="#DAE8F5"/>
<path d="M246.55 360.987H182.569C180.198 360.987 178.276 359.065 178.276 356.694V178.562C178.276 176.191 180.198 174.27 182.569 174.27H474.332" fill="#EEF7FF"/>
<path d="M334.091 167.417C334.091 168.614 333.121 169.584 331.924 169.584C330.727 169.584 329.757 168.614 329.757 167.417C329.757 166.22 330.727 165.25 331.924 165.25C333.121 165.25 334.091 166.22 334.091 167.417Z" fill="#9EA8FF"/>
<path d="M319.038 198.484H207.029V204.18H319.038V198.484Z" fill="#006EB7"/>
<path d="M319.038 228.846H207.029V234.541H319.038V228.846Z" fill="#006EB7"/>
<path d="M272.349 208.605H207.029V214.301H272.349V208.605Z" fill="#006EB7"/>
<path d="M332.428 218.727H207.029V224.423H332.428V218.727Z" fill="#006EB7"/>
<path d="M354.764 218.727H334.503V224.423H354.764V218.727Z" fill="#006EB7"/>
<path d="M368.951 218.727H357.979V224.423H368.951V218.727Z" fill="#006EB7"/>
<path d="M278.477 238.967H207.029V244.662H278.477V238.967Z" fill="#006EB7"/>
<path d="M291.203 238.967H279.659V244.662H291.203V238.967Z" fill="#006EB7"/>
<path d="M299.286 238.967H293.035V244.662H299.286V238.967Z" fill="#006EB7"/>
<path d="M247.897 317.289H206.748V322.985H247.897V317.289Z" fill="#006EB7"/>
<path d="M230.745 327.41H206.748V333.106H230.745V327.41Z" fill="#006EB7"/>
<path d="M389.402 323.492H466.272V317.797H389.402V323.492Z" fill="#006EB7"/>
<path d="M421.444 333.613H466.272V327.917H421.444V333.613Z" fill="#006EB7"/>
<path d="M380.212 343.734H466.272V338.039H380.212V343.734Z" fill="#006EB7"/>
<path d="M364.884 343.734H378.789V338.039H364.884V343.734Z" fill="#006EB7"/>
<path d="M355.148 343.734H362.678V338.039H355.148V343.734Z" fill="#006EB7"/>
<path d="M208.55 250.902H207.029V311.788H208.55V250.902Z" fill="#006EB7"/>
<path d="M162.615 377.787H501.233V388.722C501.233 396.182 495.177 402.239 487.717 402.239H176.131C168.671 402.239 162.615 396.182 162.615 388.722V377.787Z" fill="#0079C2"/>
<path d="M392.545 428.119H271.304L285.992 402.238H377.857L392.545 428.119Z" fill="#0079C2"/>
<path d="M258.012 425.812H405.836C409.803 425.812 413.023 429.033 413.023 432.999V435.185H250.825V432.999C250.825 429.033 254.046 425.812 258.012 425.812Z" fill="#0079C2"/>
<g style="mix-blend-mode:multiply" opacity="0.43">
<path d="M285.992 402.238L278.648 415.178H385.201L377.857 402.238H285.992Z" fill="#0079C2"/>
</g>
<path d="M551.836 209.316H450.631C448.656 209.316 447.055 210.917 447.055 212.892V306.231C447.055 308.206 448.656 309.807 450.631 309.807H551.836C553.811 309.807 555.412 308.206 555.412 306.231V212.892C555.412 210.917 553.811 209.316 551.836 209.316Z" fill="#0079C2"/>
<path d="M548.062 223.908H454.405C452.976 223.908 451.817 225.067 451.817 226.496V300.305C451.817 301.734 452.976 302.893 454.405 302.893H548.062C549.491 302.893 550.649 301.734 550.649 300.305V226.496C550.649 225.067 549.491 223.908 548.062 223.908Z" fill="white"/>
<path d="M468.059 268.949V268.268L473.548 265.472V266.563L469.338 268.591L469.372 268.523V268.694L469.338 268.626L473.548 270.654V271.745L468.059 268.949ZM478.765 262.881L475.952 273.33H475.032L477.844 262.881H478.765ZM485.735 268.949L480.247 271.745V270.654L484.457 268.626L484.423 268.694V268.523L484.457 268.591L480.247 266.563V265.472L485.735 268.268V268.949Z" fill="#0D91E0"/>
<path d="M459.174 216.592C459.174 218.143 457.916 219.401 456.365 219.401C454.813 219.401 453.556 218.143 453.556 216.592C453.556 215.041 454.814 213.783 456.365 213.783C457.916 213.783 459.174 215.041 459.174 216.592Z" fill="#0D91E0"/>
<path d="M465.927 219.401C467.479 219.401 468.736 218.143 468.736 216.592C468.736 215.041 467.479 213.783 465.927 213.783C464.376 213.783 463.118 215.041 463.118 216.592C463.118 218.143 464.376 219.401 465.927 219.401Z" fill="#0D91E0"/>
<path d="M475.49 219.401C477.041 219.401 478.299 218.143 478.299 216.592C478.299 215.041 477.041 213.783 475.49 213.783C473.938 213.783 472.681 215.041 472.681 216.592C472.681 218.143 473.938 219.401 475.49 219.401Z" fill="#0D91E0"/>
<path d="M416.757 45.8281H301.953C299.978 45.8281 298.377 47.4291 298.377 49.4041V142.743C298.377 144.718 299.978 146.319 301.953 146.319H416.757C418.732 146.319 420.333 144.718 420.333 142.743V49.4041C420.333 47.4291 418.732 45.8281 416.757 45.8281Z" fill="#063450" style="mix-blend-mode:lighten"/>
<path d="M412.984 60.4199H305.726C304.297 60.4199 303.139 61.5783 303.139 63.0073V136.817C303.139 138.246 304.297 139.404 305.726 139.404H412.984C414.413 139.404 415.571 138.246 415.571 136.817V63.0073C415.571 61.5783 414.413 60.4199 412.984 60.4199Z" fill="white"/>
<path d="M320.81 102.529H319.753C319.691 102.225 319.582 101.958 319.425 101.728C319.272 101.498 319.084 101.305 318.863 101.149C318.644 100.99 318.401 100.87 318.134 100.791C317.867 100.711 317.589 100.671 317.299 100.671C316.771 100.671 316.292 100.805 315.863 101.072C315.437 101.339 315.097 101.732 314.844 102.252C314.594 102.772 314.469 103.41 314.469 104.166C314.469 104.921 314.594 105.559 314.844 106.079C315.097 106.599 315.437 106.992 315.863 107.259C316.292 107.526 316.771 107.66 317.299 107.66C317.589 107.66 317.867 107.62 318.134 107.541C318.401 107.461 318.644 107.343 318.863 107.187C319.084 107.028 319.272 106.833 319.425 106.603C319.582 106.37 319.691 106.103 319.753 105.802H320.81C320.731 106.248 320.586 106.647 320.376 106.999C320.165 107.352 319.904 107.651 319.592 107.899C319.279 108.143 318.928 108.329 318.539 108.457C318.153 108.585 317.739 108.649 317.299 108.649C316.555 108.649 315.893 108.467 315.313 108.103C314.734 107.74 314.278 107.222 313.945 106.552C313.613 105.882 313.447 105.086 313.447 104.166C313.447 103.245 313.613 102.45 313.945 101.779C314.278 101.109 314.734 100.592 315.313 100.228C315.893 99.8645 316.555 99.6827 317.299 99.6827C317.739 99.6827 318.153 99.7466 318.539 99.8745C318.928 100.002 319.279 100.19 319.592 100.437C319.904 100.681 320.165 100.98 320.376 101.332C320.586 101.681 320.731 102.08 320.81 102.529ZM322.518 99.802H323.779L326.745 107.046H326.848L329.813 99.802H331.075V108.529H330.086V101.899H330.001L327.274 108.529H326.319L323.592 101.899H323.507V108.529H322.518V99.802ZM337.967 101.984C337.915 101.552 337.708 101.217 337.344 100.978C336.981 100.74 336.535 100.62 336.006 100.62C335.62 100.62 335.282 100.683 334.992 100.808C334.705 100.933 334.481 101.105 334.319 101.323C334.16 101.542 334.08 101.791 334.08 102.069C334.08 102.302 334.136 102.502 334.246 102.67C334.36 102.835 334.505 102.972 334.681 103.083C334.857 103.191 335.042 103.281 335.235 103.352C335.428 103.42 335.606 103.475 335.768 103.518L336.654 103.757C336.881 103.816 337.134 103.899 337.413 104.004C337.694 104.109 337.962 104.252 338.218 104.434C338.476 104.613 338.69 104.843 338.857 105.124C339.025 105.406 339.109 105.751 339.109 106.16C339.109 106.632 338.985 107.058 338.738 107.438C338.494 107.819 338.136 108.122 337.664 108.346C337.195 108.57 336.626 108.683 335.955 108.683C335.33 108.683 334.789 108.582 334.332 108.38C333.877 108.178 333.519 107.897 333.258 107.536C332.999 107.176 332.853 106.757 332.819 106.279H333.91C333.938 106.609 334.049 106.882 334.242 107.097C334.438 107.311 334.685 107.47 334.984 107.575C335.285 107.677 335.609 107.728 335.955 107.728C336.359 107.728 336.721 107.663 337.042 107.532C337.363 107.399 337.617 107.214 337.805 106.978C337.992 106.74 338.086 106.461 338.086 106.143C338.086 105.853 338.005 105.617 337.843 105.436C337.681 105.254 337.468 105.106 337.204 104.992C336.94 104.879 336.654 104.779 336.347 104.694L335.273 104.387C334.592 104.191 334.052 103.911 333.654 103.548C333.256 103.184 333.057 102.708 333.057 102.12C333.057 101.632 333.19 101.205 333.454 100.842C333.721 100.475 334.079 100.191 334.528 99.9895C334.979 99.785 335.484 99.6827 336.04 99.6827C336.603 99.6827 337.103 99.7836 337.54 99.9853C337.978 100.184 338.324 100.457 338.58 100.803C338.839 101.15 338.975 101.544 338.989 101.984H337.967Z" fill="#139EF1"/>
<path d="M310.495 53.1039C310.495 54.6552 309.238 55.9128 307.687 55.9128C306.135 55.9128 304.878 54.6552 304.878 53.1039C304.878 51.5525 306.135 50.2949 307.687 50.2949C309.238 50.2949 310.495 51.5525 310.495 53.1039Z" fill="#EEF7FF"/>
<path d="M317.249 55.9128C318.8 55.9128 320.058 54.6552 320.058 53.1039C320.058 51.5525 318.8 50.2949 317.249 50.2949C315.698 50.2949 314.44 51.5525 314.44 53.1039C314.44 54.6552 315.698 55.9128 317.249 55.9128Z" fill="#EEF7FF"/>
<path d="M326.811 55.9128C328.363 55.9128 329.62 54.6552 329.62 53.1039C329.62 51.5525 328.363 50.2949 326.811 50.2949C325.26 50.2949 324.002 51.5525 324.002 53.1039C324.002 54.6552 325.26 55.9128 326.811 55.9128Z" fill="#EEF7FF"/>
<path d="M570.811 402.285H514.023C510.994 402.285 508.538 399.555 508.538 396.188V322.416C508.538 319.048 510.994 316.318 514.023 316.318H562.679L576.295 333.641V396.188C576.295 399.555 573.84 402.285 570.811 402.285Z" fill="white"/>
<path d="M562.679 316.318V329.265C562.679 331.746 564.498 333.751 566.729 333.73L576.295 333.641L562.679 316.318Z" fill="#DBE8F1"/>
<g style="mix-blend-mode:multiply" opacity="0.18">
<path d="M562.705 340.82H522.129V344.343H562.705V340.82Z" fill="#0D91E0"/>
</g>
<g style="mix-blend-mode:multiply" opacity="0.18">
<path d="M562.705 349.18H522.129V352.702H562.705V349.18Z" fill="#0D91E0"/>
</g>
<g style="mix-blend-mode:multiply" opacity="0.18">
<path d="M562.705 357.539H522.129V361.062H562.705V357.539Z" fill="#0D91E0"/>
</g>
<g style="mix-blend-mode:multiply" opacity="0.18">
<path d="M562.705 365.9H522.129V369.423H562.705V365.9Z" fill="#0D91E0"/>
</g>
<g style="mix-blend-mode:multiply" opacity="0.18">
<path d="M562.705 374.26H522.129V377.782H562.705V374.26Z" fill="#0D91E0"/>
</g>
<path d="M230.47 145.956C234.523 137.223 232.87 127.15 227.046 119.217C226.258 118.144 224.618 118.258 223.988 119.431L216.443 133.504C214.416 137.285 209.791 138.828 205.899 137.022L197.923 133.321C194.031 131.515 192.223 126.986 193.802 122.997L199.677 108.15C200.167 106.912 199.195 105.585 197.866 105.676C188.049 106.351 179.289 111.592 175.236 120.325C169.927 131.765 174.405 145.505 185.23 153.719C185.912 154.237 186.116 155.174 185.737 155.942L137.086 254.304C135.004 258.652 136.876 263.863 141.249 265.892C145.622 267.921 150.81 265.986 152.787 261.59L196.492 160.933C196.833 160.147 197.681 159.698 198.517 159.885C211.778 162.848 225.161 157.396 230.47 145.956ZM144.149 259.643C142.187 258.733 141.335 256.405 142.245 254.443C143.156 252.481 148.129 245.929 150.091 246.839C152.052 247.749 150.26 255.778 149.349 257.74C148.439 259.701 146.111 260.554 144.149 259.643Z" fill="#0079C2"/>
<path d="M143.742 116.293H86.1418C84.1669 116.293 82.5658 117.894 82.5658 119.869V172.768C82.5658 174.743 84.1669 176.344 86.1418 176.344H143.742C145.717 176.344 147.318 174.743 147.318 172.768V119.869C147.318 117.894 145.717 116.293 143.742 116.293Z" fill="#0079C2"/>
<path d="M87.9992 125.014H141.885C143.313 125.014 144.472 126.173 144.472 127.601V169.626C144.472 171.054 143.313 172.213 141.885 172.213H87.999C86.571 172.213 85.4118 171.054 85.4118 169.626V127.601C85.4118 126.173 86.5712 125.014 87.9992 125.014Z" fill="#006EB7"/>
<path d="M89.808 120.639C89.808 121.567 89.0564 122.318 88.1293 122.318C87.2022 122.318 86.4508 121.567 86.4508 120.639C86.4508 119.712 87.2023 118.961 88.1293 118.961C89.0563 118.961 89.808 119.712 89.808 120.639Z" fill="#0D91E0"/>
<path d="M95.5223 120.639C95.5223 121.567 94.7707 122.318 93.8436 122.318C92.9165 122.318 92.1651 121.567 92.1651 120.639C92.1651 119.712 92.9167 118.961 93.8436 118.961C94.7706 118.961 95.5223 119.712 95.5223 120.639Z" fill="#0D91E0"/>
<path d="M101.237 120.639C101.237 121.567 100.485 122.318 99.5579 122.318C98.6308 122.318 97.8794 121.567 97.8794 120.639C97.8794 119.712 98.631 118.961 99.5579 118.961C100.485 118.961 101.237 119.712 101.237 120.639Z" fill="#0D91E0"/>
<path d="M115.144 130.061C119.867 130.061 123.696 133.89 123.697 138.613C123.697 143.337 119.868 147.166 115.144 147.166C110.42 147.166 106.591 143.337 106.591 138.613C106.591 133.89 110.42 130.061 115.144 130.061Z" fill="white"/>
<path d="M130.932 172.213H99.3561V166.241C99.3561 157.521 106.424 150.453 115.144 150.453C123.863 150.453 130.932 157.521 130.932 166.241V172.213Z" fill="white"/>
<path d="M271.894 51.5301H189.596C185.047 51.5301 181.359 47.8423 181.359 43.2933C181.359 38.7443 185.047 35.0566 189.596 35.0566H271.894C276.443 35.0566 280.13 38.7443 280.13 43.2933C280.13 47.8423 276.443 51.5301 271.894 51.5301Z" fill="#EEF7FF"/>
<path d="M193.354 51.5301H189.596C185.047 51.5301 181.359 47.8423 181.359 43.2933C181.359 38.7443 185.047 35.0566 189.596 35.0566H193.354C197.903 35.0566 201.59 38.7443 201.59 43.2933C201.59 47.8423 197.903 51.5301 193.354 51.5301Z" fill="#0079C2"/>
<path d="M271.894 73.5397H189.596C185.047 73.5397 181.359 69.852 181.359 65.303C181.359 60.754 185.047 57.0664 189.596 57.0664H271.894C276.443 57.0664 280.13 60.754 280.13 65.303C280.13 69.852 276.443 73.5397 271.894 73.5397Z" fill="#EEF7FF"/>
<path d="M193.354 73.5397H189.596C185.047 73.5397 181.359 69.852 181.359 65.303C181.359 60.754 185.047 57.0664 189.596 57.0664H193.354C197.903 57.0664 201.59 60.754 201.59 65.303C201.59 69.852 197.903 73.5397 193.354 73.5397Z" fill="#0079C2"/>
<path d="M271.894 95.5496H189.596C185.047 95.5496 181.359 91.8618 181.359 87.3129C181.359 82.7638 185.047 79.0762 189.596 79.0762H271.894C276.443 79.0762 280.13 82.7638 280.13 87.3129C280.13 91.8618 276.443 95.5496 271.894 95.5496Z" fill="#EEF7FF"/>
<path d="M193.354 95.5496H189.596C185.047 95.5496 181.359 91.8618 181.359 87.3129C181.359 82.7638 185.047 79.0762 189.596 79.0762H193.354C197.903 79.0762 201.59 82.7638 201.59 87.3129C201.59 91.8618 197.903 95.5496 193.354 95.5496Z" fill="#0079C2"/>
<path d="M269.728 41.1914H207.029V45.8289H269.728V41.1914Z" fill="#DAE8F5"/>
<path d="M269.728 62.9844H207.029V67.6217H269.728V62.9844Z" fill="#DAE8F5"/>
<path d="M269.728 84.7793H207.029V89.4166H269.728V84.7793Z" fill="#DAE8F5"/>
</g>
</svg>
