<svg width="14" height="14" viewBox="0 0 14 14" fill="none" xmlns="http://www.w3.org/2000/svg">
<g clip-path="url(#clip0_6362_135879)">
<path fill-rule="evenodd" clip-rule="evenodd" d="M7 1.3125C3.85888 1.3125 1.3125 3.85888 1.3125 7C1.3125 10.1411 3.85888 12.6875 7 12.6875C10.1411 12.6875 12.6875 10.1411 12.6875 7C12.6875 3.85888 10.1411 1.3125 7 1.3125ZM0.4375 7C0.4375 3.37563 3.37563 0.4375 7 0.4375C10.6244 0.4375 13.5625 3.37563 13.5625 7C13.5625 10.6244 10.6244 13.5625 7 13.5625C3.37563 13.5625 0.4375 10.6244 0.4375 7ZM7 5.25C7.24162 5.25 7.4375 5.44588 7.4375 5.6875V10.0625C7.4375 10.3041 7.24162 10.5 7 10.5C6.75838 10.5 6.5625 10.3041 6.5625 10.0625V5.6875C6.5625 5.44588 6.75838 5.25 7 5.25ZM7 4.375C7.24162 4.375 7.4375 4.17912 7.4375 3.9375C7.4375 3.69588 7.24162 3.5 7 3.5C6.75838 3.5 6.5625 3.69588 6.5625 3.9375C6.5625 4.17912 6.75838 4.375 7 4.375Z" fill="#777B92"/>
</g>
<defs>
<clipPath id="clip0_6362_135879">
<rect width="14" height="14" fill="white"/>
</clipPath>
</defs>
</svg>
