<svg width="17" height="16" viewBox="0 0 17 16" fill="none" xmlns="http://www.w3.org/2000/svg">
<path fill-rule="evenodd" clip-rule="evenodd" d="M8.5 0.5C4.35786 0.5 1 3.85786 1 8C1 12.1421 4.35786 15.5 8.5 15.5C12.6421 15.5 16 12.1421 16 8C16 3.85786 12.6421 0.5 8.5 0.5ZM9 4.5C9 4.22386 8.77614 4 8.5 4C8.22386 4 8 4.22386 8 4.5V9.5C8 9.77614 8.22386 10 8.5 10C8.77614 10 9 9.77614 9 9.5V4.5ZM8.5 12C8.77614 12 9 11.7761 9 11.5C9 11.2239 8.77614 11 8.5 11C8.22386 11 8 11.2239 8 11.5C8 11.7761 8.22386 12 8.5 12Z" fill="#F14141"/>
</svg>
