<svg width="16" height="16" viewBox="0 0 16 16" fill="none" xmlns="http://www.w3.org/2000/svg">
<g id="copy 2">
<path id="Union" fill-rule="evenodd" clip-rule="evenodd" d="M13.4531 0.5C14.2816 0.5 14.9531 1.17157 14.9531 2V10C14.9531 10.8284 14.2816 11.5 13.4531 11.5H9.9675V14.0268C9.9675 14.8552 9.29593 15.5268 8.4675 15.5268H2.4675C1.63907 15.5268 0.967499 14.8552 0.967499 14.0268V6.02679C0.967499 5.19837 1.63907 4.52679 2.4675 4.52679H5.95312V2C5.95312 1.17157 6.6247 0.5 7.45312 0.5H13.4531ZM6.95312 4.52679V2C6.95312 1.72386 7.17698 1.5 7.45312 1.5H13.4531C13.7293 1.5 13.9531 1.72386 13.9531 2V10C13.9531 10.2761 13.7293 10.5 13.4531 10.5H9.9675V6.02679C9.9675 5.19837 9.29593 4.52679 8.4675 4.52679H6.95312ZM8.9675 6.02679C8.9675 5.75065 8.74364 5.52679 8.4675 5.52679H2.4675C2.19136 5.52679 1.9675 5.75065 1.9675 6.02679V14.0268C1.9675 14.3029 2.19136 14.5268 2.4675 14.5268H8.4675C8.74364 14.5268 8.9675 14.3029 8.9675 14.0268V6.02679Z" fill="#838383"/>
</g>
</svg>
