<svg width="17" height="16" viewBox="0 0 17 16" fill="none" xmlns="http://www.w3.org/2000/svg">
<path fill-rule="evenodd" clip-rule="evenodd" d="M4.32566 6.56295C4.32566 5.6436 5.07094 4.89832 5.99029 4.89832C6.90964 4.89832 7.65492 5.6436 7.65492 6.56295C7.65492 7.4823 6.90964 8.22758 5.99029 8.22758C5.07094 8.22758 4.32566 7.4823 4.32566 6.56295ZM5.99029 3.89832C4.51865 3.89832 3.32566 5.09131 3.32566 6.56295C3.32566 8.03459 4.51865 9.22758 5.99029 9.22758C7.46193 9.22758 8.65492 8.03459 8.65492 6.56295C8.65492 5.09131 7.46193 3.89832 5.99029 3.89832ZM2.16083 14.5C2.16083 12.3852 3.87525 10.6708 5.9901 10.6708C8.10494 10.6708 9.81936 12.3852 9.81936 14.5C9.81936 14.7762 10.0432 15 10.3194 15C10.5955 15 10.8194 14.7762 10.8194 14.5C10.8194 11.8329 8.65723 9.67077 5.9901 9.67077C3.32296 9.67077 1.16083 11.8329 1.16083 14.5C1.16083 14.7762 1.38469 15 1.66083 15C1.93697 15 2.16083 14.7762 2.16083 14.5Z" fill="#101010"/>
<path fill-rule="evenodd" clip-rule="evenodd" d="M11.063 0.809966C10.2346 0.809966 9.56305 1.48154 9.56305 2.30997V7.23679C9.56305 8.06521 10.2346 8.73679 11.0631 8.73679H14.0108C14.8392 8.73679 15.5108 8.06521 15.5108 7.23679V3.70327C15.5108 3.30545 15.3527 2.92392 15.0714 2.64261L13.6781 1.24931C13.3968 0.968001 13.0153 0.809966 12.6175 0.809966H11.063ZM10.563 2.30997C10.563 2.03382 10.7869 1.80997 11.063 1.80997H12.6175C12.7501 1.80997 12.8773 1.86264 12.971 1.95641L14.3643 3.34972C14.4581 3.44349 14.5108 3.57066 14.5108 3.70327V7.23679C14.5108 7.51293 14.2869 7.73679 14.0108 7.73679H11.0631C10.7869 7.73679 10.563 7.51293 10.563 7.23679V2.30997ZM11.0473 5.26817C11.0473 4.99203 11.2712 4.76817 11.5473 4.76817H12.5369C12.813 4.76817 13.0369 4.99203 13.0369 5.26817C13.0369 5.54431 12.813 5.76817 12.5369 5.76817H11.5473C11.2712 5.76817 11.0473 5.54431 11.0473 5.26817ZM11.0473 6.75246C11.0473 6.47631 11.2712 6.25246 11.5473 6.25246H13.5264C13.8026 6.25246 14.0264 6.47631 14.0264 6.75246C14.0264 7.0286 13.8026 7.25246 13.5264 7.25246H11.5473C11.2712 7.25246 11.0473 7.0286 11.0473 6.75246Z" fill="#101010"/>
</svg>
