<svg width="16" height="16" viewBox="0 0 16 12" fill="none" xmlns="http://www.w3.org/2000/svg">
<g id="paragraph_yi864y9st0d3 1">
<g id="Group">
<g id="Group_2">
<path id="Vector" d="M10.6718 6.48061C10.4336 5.79209 9.92845 5.23469 9.24948 4.91099C9.23277 4.90304 9.21568 4.89593 9.19824 4.88969L7.16856 4.16407C7.15785 4.16024 7.14702 4.15674 7.13611 4.1536C7.12604 4.1507 7.1144 4.14725 7.1016 4.1434C6.97415 4.08669 6.8444 4.04029 6.7134 4.00386C6.19215 3.78703 5.42586 3.34389 5.42586 2.61297C5.42586 1.77527 6.12504 1.09375 6.98446 1.09375H7.27157C8.16855 1.09375 8.87118 1.76638 8.87118 2.625C8.87118 2.92704 9.11601 3.17188 9.41805 3.17188C9.72009 3.17188 9.96493 2.92704 9.96493 2.625C9.96493 1.91414 9.68217 1.25035 9.16873 0.755836C8.66274 0.268406 7.98899 0 7.27162 0H6.98451C5.52201 0 4.33217 1.17217 4.33217 2.61297C4.33217 3.15946 4.53621 3.66682 4.92632 4.09987C4.3092 4.34353 3.77824 4.80408 3.46504 5.4367C3.14438 6.08442 3.09577 6.81103 3.32816 7.48264C3.56638 8.17116 4.07153 8.72856 4.7505 9.05226C4.76795 9.06057 4.7858 9.06795 4.80401 9.07438L6.96679 9.83678C6.97675 9.8403 6.98681 9.8435 6.99695 9.84646C7.28253 9.9289 8.7072 10.3905 8.7072 11.3871C8.7072 12.2248 8.00802 12.9063 7.1486 12.9063H6.86149C5.96451 12.9063 5.26188 12.2337 5.26188 11.3751C5.26188 11.073 5.01705 10.8282 4.71501 10.8282C4.41297 10.8282 4.16813 11.073 4.16813 11.3751C4.16813 12.0859 4.4509 12.7497 4.96433 13.2442C5.47035 13.7316 6.1441 14 6.86147 14H7.14858C8.61108 14 9.80092 12.8278 9.80092 11.387C9.80092 10.7113 9.48909 10.0954 8.89915 9.60586C8.48697 9.26384 7.92517 8.97802 7.31581 8.80007L5.19675 8.05306C4.79666 7.85504 4.50063 7.52634 4.36176 7.12499C4.22591 6.73233 4.25555 6.30511 4.44524 5.92197C4.79655 5.21232 5.60316 4.86188 6.35714 5.04148C6.47414 5.08807 6.59413 5.13075 6.71633 5.16917C6.75321 5.18517 6.79089 5.19673 6.82893 5.20417L8.80219 5.90964C9.20283 6.10761 9.49921 6.43653 9.6382 6.83823C9.77404 7.23086 9.7444 7.65811 9.55472 8.04125C9.4207 8.31193 9.5315 8.63997 9.80218 8.77401C9.88016 8.81262 9.96288 8.83091 10.0444 8.83091C10.2457 8.83091 10.4395 8.71921 10.5349 8.52655C10.8556 7.87886 10.9042 7.15222 10.6718 6.48061Z" fill="#101010"/>
</g>
</g>
</g>
</svg>
