<svg width="24" height="16" viewBox="0 0 24 16" fill="none" xmlns="http://www.w3.org/2000/svg">
<path d="M23.7447 7.56692C24.0851 7.75937 24.0851 8.2405 23.7447 8.43295L12.3806 14.8573C11.151 15.5827 9.71037 16 8.17021 16C3.65793 16 0 12.4183 0 8C0 3.58172 3.65793 0 8.17021 0C9.65867 0 11.0542 0.389739 12.2561 1.07068C12.2968 1.09378 12.3376 1.11729 12.3779 1.14105L23.7447 7.56692Z" fill="#E67B0F"/>
<path fill-rule="evenodd" clip-rule="evenodd" d="M5.375 3C3.64911 3 2.25 4.39911 2.25 6.125C2.25 6.90041 2.53242 7.60986 3 8.1561L3 9.75H2.75C2.47386 9.75 2.25 9.97386 2.25 10.25C2.25 10.5261 2.47386 10.75 2.75 10.75H3.12454C3.04431 10.9424 3 11.1535 3 11.375C3 12.2725 3.72754 13 4.625 13C5.52246 13 6.25 12.2725 6.25 11.375C6.25 11.1535 6.20569 10.9424 6.12546 10.75H9.87454C9.79431 10.9424 9.75 11.1535 9.75 11.375C9.75 12.2725 10.4775 13 11.375 13C12.2725 13 13 12.2725 13 11.375C13 11.1092 12.9362 10.8582 12.823 10.6367C13.3671 10.4116 13.75 9.8755 13.75 9.25V8.5C13.75 8.02786 13.5277 7.58328 13.15 7.3L10.6756 5.44422C10.3649 4.0457 9.11708 3 7.625 3H5.375ZM4 9.75H4.625H9.75V8.41631C9.1924 8.93368 8.44564 9.25 7.625 9.25H5.375C4.88161 9.25 4.41493 9.13566 4 8.93203L4 9.75ZM11.375 9.75H10.75V6.75L12.55 8.1C12.6759 8.19443 12.75 8.34262 12.75 8.5V9.25C12.75 9.52614 12.5261 9.75 12.25 9.75H11.375ZM3.25 6.125C3.25 4.95139 4.20139 4 5.375 4H7.625C8.7986 4 9.75 4.9514 9.75 6.125C9.75 7.2986 8.7986 8.25 7.625 8.25H5.375C4.2014 8.25 3.25 7.2986 3.25 6.125ZM4 11.375C4 11.0298 4.27982 10.75 4.625 10.75C4.97018 10.75 5.25 11.0298 5.25 11.375C5.25 11.7202 4.97018 12 4.625 12C4.27982 12 4 11.7202 4 11.375ZM11.375 10.75C11.0298 10.75 10.75 11.0298 10.75 11.375C10.75 11.7202 11.0298 12 11.375 12C11.7202 12 12 11.7202 12 11.375C12 11.0298 11.7202 10.75 11.375 10.75Z" fill="white"/>
</svg>
