<svg width="20" height="20" viewBox="0 0 20 20" fill="none" xmlns="http://www.w3.org/2000/svg">
<g id="1/Right">
<path id="Union" fill-rule="evenodd" clip-rule="evenodd" d="M1.15921 1.6781C1.15921 0.849677 1.83078 0.178101 2.65921 0.178101H8.77407C9.17189 0.178101 9.55342 0.336136 9.83473 0.61744L14.2683 5.05104C14.5496 5.33234 14.7077 5.71387 14.7077 6.1117V8.53584C14.7077 8.81198 14.4838 9.03584 14.2077 9.03584C13.9315 9.03584 13.7077 8.81198 13.7077 8.53584V6.18113C13.667 6.19182 13.6243 6.19751 13.5803 6.19751H10.1883C9.35988 6.19751 8.68831 5.52593 8.68831 4.69751V1.30555C8.68831 1.2615 8.694 1.21879 8.7047 1.1781H2.65921C2.38307 1.1781 2.15921 1.40196 2.15921 1.6781V17.2459C2.15921 17.5221 2.38307 17.7459 2.65921 17.7459H9.18828C9.46443 17.7459 9.68828 17.9698 9.68828 18.2459C9.68828 18.5221 9.46443 18.7459 9.18828 18.7459H2.65921C1.83078 18.7459 1.15921 18.0744 1.15921 17.2459V1.6781ZM9.68831 1.88523L13.0006 5.19751H10.1883C9.91217 5.19751 9.68831 4.97365 9.68831 4.69751V1.88523ZM18.0417 10.8393C19.0542 10.8393 19.875 11.6601 19.875 12.6726V14.2406C19.875 15.2531 19.0542 16.074 18.0417 16.074H12.3425V16.0749H9.38016C9.10402 16.0749 8.88016 15.851 8.88016 15.5749C8.88016 15.2987 9.10402 15.0749 9.38016 15.0749H10.6061C10.478 14.8246 10.4057 14.5411 10.4057 14.2406V12.6726C10.4057 11.6601 11.2265 10.8393 12.239 10.8393H18.0417ZM18.875 12.6726C18.875 12.2124 18.5019 11.8393 18.0417 11.8393H12.239C11.7788 11.8393 11.4057 12.2124 11.4057 12.6726V14.2406C11.4057 14.7009 11.7788 15.074 12.239 15.074H18.0417C18.5019 15.074 18.875 14.7009 18.875 14.2406V12.6726ZM18.3163 17.1327C18.6249 17.1327 18.875 17.3829 18.875 17.6914C18.875 17.9999 18.6249 18.2501 18.3163 18.2501C18.0078 18.2501 17.7577 17.9999 17.7577 17.6914C17.7577 17.3829 18.0078 17.1327 18.3163 17.1327ZM19.875 17.6914C19.875 16.8306 19.1772 16.1327 18.3163 16.1327C17.4555 16.1327 16.7577 16.8306 16.7577 17.6914C16.7577 18.5522 17.4555 19.2501 18.3163 19.2501C19.1772 19.2501 19.875 18.5522 19.875 17.6914ZM14.5678 17.1327C14.8763 17.1327 15.1264 17.3829 15.1264 17.6914C15.1264 17.9999 14.8763 18.2501 14.5678 18.2501C14.2592 18.2501 14.0091 17.9999 14.0091 17.6914C14.0091 17.3829 14.2592 17.1327 14.5678 17.1327ZM16.1264 17.6914C16.1264 16.8306 15.4286 16.1327 14.5678 16.1327C13.7069 16.1327 13.0091 16.8306 13.0091 17.6914C13.0091 18.5522 13.7069 19.2501 14.5678 19.2501C15.4286 19.2501 16.1264 18.5522 16.1264 17.6914ZM3.84109 10C3.84109 9.72386 4.06495 9.5 4.34109 9.5H6.27017H8.19925C8.47539 9.5 8.69925 9.72386 8.69925 10C8.69925 10.2761 8.47539 10.5 8.19925 10.5H6.27017H4.34109C4.06495 10.5 3.84109 10.2761 3.84109 10ZM4.34107 5.79517C4.06493 5.79517 3.84107 6.01902 3.84107 6.29517C3.84107 6.57131 4.06493 6.79517 4.34107 6.79517H5.59107H6.84107C7.11722 6.79517 7.34107 6.57131 7.34107 6.29517C7.34107 6.01902 7.11722 5.79517 6.84107 5.79517H5.59107H4.34107Z" fill="#101010"/>
</g>
</svg>
