<svg width="16" height="16" viewBox="0 0 16 17" fill="none" xmlns="http://www.w3.org/2000/svg">
<path d="M8.77784 2.04291L6.25006 7.0135M15.0001 15.0429H13.8334M13.8334 15.0429L13.0556 13.5135L10.7223 8.92526M13.8334 15.0429H9.75006M7.22228 2.04291L9.75006 7.0135M9.75006 7.0135H6.25006M9.75006 7.0135L10.7223 8.92526M6.25006 7.0135L5.27784 8.92526L2.94451 13.5135L2.16673 15.0429H1.00006H6.45224M5.24467 8.99048L10.7223 8.92526M9.75006 15.0429H6.45224M9.75006 15.0429V13.5135C9.77037 13.0128 9.4549 12.0183 8.03053 12.0454C6.60615 12.0725 6.38484 13.1972 6.45224 13.5135V15.0429" stroke="#777B92" stroke-linecap="round" stroke-linejoin="round"/>
</svg>
