<svg width="25" height="42" viewBox="0 0 25 42" fill="none" xmlns="http://www.w3.org/2000/svg">
<path fill-rule="evenodd" clip-rule="evenodd" d="M19.7845 0.236605C20.3851 1.1326 22.2399 3.89972 23.0299 7.22119C23.912 10.934 23.8954 13.216 23.5112 15.8274C22.8207 20.5052 20.6061 24.0932 19.6425 25.2967C18.9851 24.4791 17.9754 22.8102 17.3014 21.266C17.3014 21.266 16.0328 18.3026 15.6971 15.4187C15.3588 12.5461 15.503 9.61679 16.4832 6.31282C17.3806 3.36087 19.1459 0.692533 19.6283 0C19.6604 0.0514647 19.7138 0.131051 19.7845 0.236605ZM18.4565 19.7786C18.5204 22.0948 19.1944 23.5822 19.6283 24.3657C20.0764 23.5707 20.8473 21.811 20.7823 19.5856C20.6865 17.3034 19.8849 15.6345 19.6425 15.2371C19.3705 15.6344 18.44 17.5533 18.4565 19.7786ZM22.3394 17.3376C22.5641 16.4406 22.7403 14.9418 22.7734 13.5225C22.8041 12.1146 22.6587 9.7077 21.9386 7.19843C21.215 4.68928 19.8199 2.29356 19.6117 1.98693C19.4036 2.29356 18.2957 4.2351 17.3168 7.26658C17.0602 8.17495 16.5921 10.1619 16.5139 12.0807C16.4206 14.4082 16.7516 16.7357 16.8841 17.383C16.8841 16.6109 16.8982 14.0335 17.3972 11.9104C17.8937 9.78711 18.8421 7.33474 19.6118 6.08573C20.4453 7.39151 21.4893 10.2299 21.8582 11.9217C22.2272 13.6248 22.4198 15.7934 22.3394 17.3376Z" fill="white"/>
<path d="M14.4117 26.1595H24.9299V35.6173C22.3004 38.3082 18.5618 40 14.4117 40C6.45212 40 0 33.8007 0 26.1595C0 18.5182 6.45212 12.3304 14.4117 12.3304V22.7306C12.3403 22.7306 10.2687 23.48 8.68917 25.0014C8.32082 25.3562 7.98863 25.744 7.6971 26.1595C5.57358 29.1796 5.90346 33.3238 8.68917 35.992C10.2687 37.5135 12.3403 38.2628 14.4117 38.2628C16.4738 38.2628 18.5358 37.5135 20.1142 36.0148C20.1214 36.0034 20.1296 35.992 20.1379 35.992C20.1415 35.9862 20.145 35.9834 20.1486 35.9805C20.1521 35.9777 20.1557 35.9749 20.1592 35.9694C21.7412 34.4479 21.7412 31.9841 20.1592 30.474C18.576 28.9526 16.0103 28.9526 14.4283 30.474C14.4253 30.474 14.4227 30.4768 14.4201 30.4796C14.4174 30.4825 14.4147 30.4854 14.4117 30.4854V26.1595Z" fill="white"/>
</svg>
