<svg width="199" height="42" viewBox="0 0 199 42" fill="none" xmlns="http://www.w3.org/2000/svg">
<g clip-path="url(#clip0_1_19)">
<path d="M117.816 27.256H121.315V28.6111C121.315 31.9078 119.818 33.3438 116.582 33.3438C113.366 33.3438 111.849 31.9281 111.849 28.5909V22.2603C111.849 19.9749 113.265 18.1546 116.582 18.1546C119.859 18.1546 121.315 20.0153 121.315 22.2806V23.2716H117.816V21.957C117.816 21.1884 117.088 20.8243 116.542 20.8243C115.955 20.8243 115.348 21.148 115.348 21.8963V29.137C115.348 30.2291 115.814 30.6741 116.542 30.6741C117.29 30.6741 117.816 30.2696 117.816 29.1774V27.256ZM122.159 18.4782H127.034L128.166 24.3638C128.409 25.5571 128.53 27.5796 128.692 28.9549H128.733C128.895 27.6403 129.056 25.3953 129.259 24.3638L130.391 18.4782H135.266V33H131.928V27.9032C131.928 26.5077 132.029 22.7862 132.11 21.5727H132.09L129.926 33H127.499L125.335 21.5727H125.315C125.375 22.5839 125.497 25.9211 125.497 27.883V33H122.159V18.4782ZM138.523 18.4782H142.709L145.925 33H142.487L141.961 30.0876H139.291L138.846 33H135.368L138.523 18.4782ZM139.635 27.4785H141.496L140.565 21.0873H140.545L139.635 27.4785Z" fill="white"/>
<path d="M151.011 18.4782H158.919V21.0873H154.51V24.0806H156.088C158.151 24.0806 160.335 24.9908 160.335 28.5707C160.335 32.2719 158.11 33 156.088 33H151.011V18.4782ZM154.51 26.6897V30.3909H155.117C156.128 30.3909 156.836 30.0471 156.836 28.6111C156.836 27.1549 156.047 26.6897 155.178 26.6897H154.51ZM164.678 27.3369V33H161.179V18.4782H166.256C168.278 18.4782 170.503 19.2063 170.503 22.9076C170.503 26.4874 168.319 27.3369 166.256 27.3369H164.678ZM164.678 21.0873V24.7278H165.305C166.175 24.7278 167.004 24.3031 167.004 22.8671C167.004 21.4311 166.256 21.0873 165.245 21.0873H164.678ZM171.811 18.4782H181.054V30.2494H181.802V35.9731H178.404V33H173.368V35.9731H169.97V30.2494H170.456C171.507 28.5909 171.811 27.0942 171.811 22.6244V18.4782ZM177.555 30.2494V21.2289H175.229V23.9593C175.229 26.7504 174.986 28.6313 174.116 30.2494H177.555Z" fill="white"/>
<path d="M186.414 32.307C186.414 31.965 186.474 31.668 186.594 31.416C186.72 31.164 186.924 30.942 187.206 30.75L189.438 29.175C189.576 29.079 189.681 28.968 189.753 28.842C189.831 28.71 189.87 28.575 189.87 28.437V28.149C189.87 27.921 189.792 27.738 189.636 27.6C189.48 27.462 189.27 27.393 189.006 27.393H188.178C187.89 27.393 187.659 27.495 187.485 27.699C187.317 27.897 187.233 28.17 187.233 28.518H186.378C186.378 27.936 186.537 27.477 186.855 27.141C187.179 26.799 187.614 26.628 188.16 26.628H189.006C189.522 26.628 189.936 26.769 190.248 27.051C190.566 27.327 190.725 27.693 190.725 28.149V28.437C190.725 28.983 190.473 29.427 189.969 29.769L187.8 31.263C187.608 31.395 187.47 31.533 187.386 31.677C187.308 31.821 187.269 32.01 187.269 32.244H190.797V33H186.414V32.307ZM192.106 33.09C191.938 33.09 191.8 33.039 191.692 32.937C191.59 32.829 191.539 32.691 191.539 32.523C191.539 32.355 191.59 32.217 191.692 32.109C191.8 32.001 191.938 31.947 192.106 31.947C192.28 31.947 192.418 32.001 192.52 32.109C192.628 32.211 192.682 32.349 192.682 32.523C192.682 32.691 192.628 32.829 192.52 32.937C192.412 33.039 192.274 33.09 192.106 33.09ZM195.375 33.072C194.991 33.072 194.652 32.985 194.358 32.811C194.064 32.637 193.836 32.394 193.674 32.082C193.512 31.764 193.431 31.401 193.431 30.993V28.707C193.431 28.299 193.512 27.939 193.674 27.627C193.836 27.309 194.064 27.063 194.358 26.889C194.652 26.715 194.991 26.628 195.375 26.628H196.329C196.707 26.628 197.04 26.715 197.328 26.889C197.622 27.063 197.847 27.309 198.003 27.627C198.165 27.939 198.246 28.299 198.246 28.707V30.993C198.246 31.401 198.165 31.764 198.003 32.082C197.847 32.394 197.625 32.637 197.337 32.811C197.049 32.985 196.713 33.072 196.329 33.072H195.375ZM196.311 32.307C196.635 32.307 196.896 32.187 197.094 31.947C197.292 31.707 197.391 31.389 197.391 30.993V28.707C197.391 28.311 197.292 27.993 197.094 27.753C196.896 27.513 196.635 27.393 196.311 27.393H195.393C195.063 27.393 194.796 27.513 194.592 27.753C194.388 27.993 194.286 28.311 194.286 28.707V30.993C194.286 31.389 194.388 31.707 194.592 31.947C194.796 32.187 195.063 32.307 195.393 32.307H196.311Z" fill="white"/>
<rect x="99" y="10" width="2" height="32" fill="white"/>
<g clip-path="url(#clip1_1_19)">
<path d="M32.2689 12.3304H26.7686V26.1823H29.6524V14.0562H32.2689V12.3304Z" fill="white"/>
<path fill-rule="evenodd" clip-rule="evenodd" d="M35.1598 26.1823H32.3363L33.8402 12.3304H38.3734L39.8773 26.1823H37.055L36.7867 22.5035H35.4269L35.1598 26.1823ZM36.0241 14.0562L35.5298 20.9822H36.6838L36.1896 14.0562H36.0241Z" fill="white"/>
<path d="M44.0074 23.9455V21.3342H41.1223V23.707C41.1223 24.6834 41.2405 26.1823 43.2622 26.1823H45.6507C47.6725 26.1823 47.8026 24.6836 47.8026 23.7072V20.914C47.8026 20.4257 47.7789 18.9952 45.8399 19.0406V18.9043C46.703 18.9385 47.8026 18.5297 47.8026 17.0196V14.8057C47.8026 13.8405 47.6725 12.3304 45.6507 12.3304H43.2622C41.2405 12.3304 41.1223 13.8405 41.1223 14.8057V16.7698H44.0074V14.5104C44.0074 14.147 44.2911 14.0562 44.4565 14.0562C44.7285 14.0562 44.9178 14.2719 44.9178 14.5104V17.2582C44.9178 18.1098 44.6222 18.2914 43.8063 18.2914H42.5885V19.8128H43.759C44.8349 19.8128 44.9178 20.2896 44.9178 20.7212V23.9455C44.9178 24.184 44.7285 24.3997 44.4566 24.3997C44.2911 24.3997 44.0074 24.2975 44.0074 23.9455Z" fill="white"/>
<path d="M56.3748 12.3304H49.6945V26.1823H52.5794V14.0562H53.4898V26.1823H56.3748V12.3304Z" fill="white"/>
<path fill-rule="evenodd" clip-rule="evenodd" d="M61.1515 26.1823H58.2665V12.3304H62.8068C64.8168 12.3304 64.9469 13.8405 64.9469 14.8057V18.9951C64.9469 19.9716 64.8168 21.4704 62.8067 21.4704H61.1515V26.1823ZM61.1515 14.0564V19.949L61.5298 19.9489C61.8373 19.9489 62.0619 19.6993 62.0619 19.2563V14.7489C62.0619 14.306 61.8373 14.0564 61.5299 14.0564H61.1515Z" fill="white"/>
<path fill-rule="evenodd" clip-rule="evenodd" d="M68.9787 26.1823C66.9686 26.1823 66.8386 24.6836 66.8386 23.7072V14.8057C66.8386 13.8405 66.9687 12.3304 68.9787 12.3304H71.3789C73.389 12.3304 73.5189 13.8405 73.5189 14.8057V23.707C73.5189 24.6834 73.3888 26.1823 71.3789 26.1823H68.9787ZM70.1729 24.3997C70.4448 24.3997 70.634 24.184 70.634 23.9455V14.5104C70.634 14.2719 70.4448 14.0562 70.1729 14.0562C70.0073 14.0562 69.7236 14.147 69.7236 14.5104V23.9455C69.7236 24.2975 70.0072 24.3997 70.1729 24.3997Z" fill="white"/>
<path d="M86.6667 12.3304H82.9069L81.0387 22.0721L79.1588 12.3304H75.4107V26.1823H78.2957V17.4965H78.402L79.88 26.1823H82.1856L83.6753 17.4965H83.7818V26.1823H86.6667V12.3304Z" fill="white"/>
<path fill-rule="evenodd" clip-rule="evenodd" d="M19.7845 0.236605C20.3851 1.1326 22.2398 3.89972 23.0299 7.22119C23.912 10.934 23.8954 13.216 23.5112 15.8275C22.8207 20.5052 20.6061 24.0932 19.6425 25.2967C18.9851 24.4791 17.9754 22.8102 17.3014 21.266C17.3014 21.266 16.0328 18.3026 15.6971 15.4187C15.3588 12.5461 15.503 9.61679 16.4832 6.31282C17.3806 3.36087 19.1459 0.692533 19.6283 0C19.6604 0.0514647 19.7138 0.131051 19.7845 0.236605ZM18.4565 19.7786C18.5204 22.0948 19.1944 23.5822 19.6283 24.3657C20.0764 23.5707 20.8473 21.811 20.7823 19.5856C20.6865 17.3034 19.8849 15.6345 19.6425 15.2371C19.3705 15.6344 18.44 17.5533 18.4565 19.7786ZM22.3394 17.3376C22.5641 16.4406 22.7403 14.9418 22.7734 13.5225C22.8041 12.1146 22.6587 9.7077 21.9386 7.19843C21.215 4.68928 19.8199 2.29356 19.6117 1.98693C19.4036 2.29356 18.2957 4.2351 17.3168 7.26658C17.0602 8.17495 16.5921 10.1619 16.5139 12.0807C16.4206 14.4082 16.7516 16.7357 16.8841 17.383C16.8841 16.6109 16.8982 14.0335 17.3972 11.9104C17.8937 9.78711 18.8421 7.33474 19.6118 6.08573C20.4453 7.39151 21.4893 10.2299 21.8582 11.9217C22.2272 13.6248 22.4198 15.7934 22.3394 17.3376Z" fill="white"/>
<path d="M14.4117 26.1595H24.9299V35.6173C22.3004 38.3082 18.5618 40 14.4117 40C6.45212 40 0 33.8007 0 26.1595C0 18.5182 6.45212 12.3304 14.4117 12.3304V22.7306C12.3403 22.7306 10.2687 23.48 8.68917 25.0014C8.32082 25.3562 7.98863 25.744 7.6971 26.1595C5.57358 29.1796 5.90346 33.3238 8.68917 35.992C10.2687 37.5135 12.3403 38.2628 14.4117 38.2628C16.4738 38.2628 18.5358 37.5135 20.1142 36.0148C20.1214 36.0034 20.1296 35.992 20.1379 35.992C20.1415 35.9862 20.145 35.9834 20.1486 35.9805C20.1521 35.9777 20.1557 35.9749 20.1592 35.9694C21.7412 34.4479 21.7412 31.9841 20.1592 30.474C18.576 28.9526 16.0103 28.9526 14.4283 30.474C14.4253 30.474 14.4227 30.4768 14.4201 30.4796C14.4174 30.4825 14.4147 30.4854 14.4117 30.4854V26.1595Z" fill="white"/>
<path d="M82.2472 37.0502H81.4872V35.5754H82.2472V37.0502Z" fill="white"/>
<path d="M57.6795 36.4972H57.4895V33.7318H58.0595V36.3128L57.6795 36.4972Z" fill="white"/>
<path d="M55.3697 33.732H55.9497V36.4972H55.7596L55.3697 36.3128V33.732Z" fill="white"/>
<path fill-rule="evenodd" clip-rule="evenodd" d="M26.7685 30.2292H86.6666V40H26.7685V30.2292ZM82.6371 34.4693H81.4872V32.0727H80.1373V38.1565C80.5943 38.1149 81.0459 38.142 81.4675 38.1672C82.7614 38.2447 83.7719 38.3052 83.787 36.3128V35.9441L83.5969 35.2067L83.4071 34.8381L82.6371 34.4693ZM70.5383 33.1788H71.4982V32.0727H68.0485V33.1788H69.0084V38.1565H70.5383V33.1788ZM57.4895 32.6257V32.0727H55.9497V32.6257H54.9898L54.4099 32.9944L54.0298 33.3632L53.84 34.1006V36.1285L54.0299 36.866L54.4099 37.2346L54.9898 37.6033H55.9497V38.1563H57.4895V37.6033H58.4495L59.0194 37.2346L59.4095 36.866L59.5993 36.1285V34.1006L59.4093 33.3632L59.0194 32.9944L58.4495 32.6257H57.4895ZM45.0068 33.1788V32.0727H42.3191V38.1563H45.1988V37.0502H43.855V35.5754H45.0068V34.4693H43.855V33.1788H45.0068ZM31.9521 34.4693H31.1842V32.0727H29.6483V38.1565H31.1842V35.5754H31.9521V38.1565H33.296V32.0727H31.9521V34.4693Z" fill="white"/>
</g>
</g>
<defs>
<clipPath id="clip0_1_19">
<rect width="199" height="42" fill="white"/>
</clipPath>
<clipPath id="clip1_1_19">
<rect width="87" height="40" fill="white"/>
</clipPath>
</defs>
</svg>
